<?xml version="1.0" encoding="UTF-8"?>
<!DOCTYPE svg PUBLIC "-//W3C//DTD SVG 1.1//EN" "http://www.w3.org/Graphics/SVG/1.1/DTD/svg11.dtd">
<svg xmlns="http://www.w3.org/2000/svg" version="1.1" width="734px" height="1116px" style="shape-rendering:geometricPrecision; text-rendering:geometricPrecision; image-rendering:optimizeQuality; fill-rule:evenodd; clip-rule:evenodd" xmlns:xlink="http://www.w3.org/1999/xlink">
<g><path style="opacity:1" fill="#195ca1" d="M 461.5,-0.5 C 466.833,-0.5 472.167,-0.5 477.5,-0.5C 572.749,5.35958 645.915,48.3596 697,128.5C 717.75,164.579 729.917,203.246 733.5,244.5C 733.5,256.833 733.5,269.167 733.5,281.5C 728.026,345.104 703.526,400.104 660,446.5C 439.965,660.703 219.798,874.703 -0.5,1088.5C -0.5,1085.5 -0.5,1082.5 -0.5,1079.5C 222.156,863.678 444.323,647.344 666,430.5C 724.373,357.975 741.039,276.642 716,186.5C 690.935,111.767 642.435,58.2673 570.5,26C 488.395,-5.96896 409.395,0.364372 333.5,45C 323.145,51.8447 313.145,59.1781 303.5,67C 201.994,165.006 100.661,263.173 -0.5,361.5C -0.5,358.5 -0.5,355.5 -0.5,352.5C 95.9647,259.203 192.298,165.703 288.5,72C 337.304,26.9381 394.971,2.77147 461.5,-0.5 Z"/></g>
</svg>
