<?xml version="1.0" encoding="UTF-8"?>
<!DOCTYPE svg PUBLIC "-//W3C//DTD SVG 1.1//EN" "http://www.w3.org/Graphics/SVG/1.1/DTD/svg11.dtd">
<svg xmlns="http://www.w3.org/2000/svg" version="1.1" width="758px" height="672px" style="shape-rendering:geometricPrecision; text-rendering:geometricPrecision; image-rendering:optimizeQuality; fill-rule:evenodd; clip-rule:evenodd" xmlns:xlink="http://www.w3.org/1999/xlink">
<g><path style="opacity:0.989" fill="#a7a8a7" d="M 351.5,6.5 C 409.565,3.53315 465.232,13.6998 518.5,37C 556.634,55.9821 590.8,80.4821 621,110.5C 637.875,130.039 653.209,150.706 667,172.5C 710.876,252.974 721.209,337.307 698,425.5C 666.784,523.804 604.618,594.97 511.5,639C 504.634,640.733 497.968,643.067 491.5,646C 390.015,680.448 293.349,670.115 201.5,615C 118.134,560.164 67.9672,483.331 51,384.5C 49.4574,356.853 49.1241,329.186 50,301.5C 50.1266,293.018 51.2933,284.685 53.5,276.5C 62.124,226.177 82.2907,180.177 114,138.5C 173.659,61.9012 252.159,18.4012 349.5,8C 350.416,7.72158 351.082,7.22158 351.5,6.5 Z"/></g>
</svg>
