<?xml version="1.0" encoding="UTF-8"?>
<!DOCTYPE svg PUBLIC "-//W3C//DTD SVG 1.1//EN" "http://www.w3.org/Graphics/SVG/1.1/DTD/svg11.dtd">
<svg xmlns="http://www.w3.org/2000/svg" version="1.1" width="763px" height="678px" style="shape-rendering:geometricPrecision; text-rendering:geometricPrecision; image-rendering:optimizeQuality; fill-rule:evenodd; clip-rule:evenodd" xmlns:xlink="http://www.w3.org/1999/xlink">
<g><path style="opacity:0.873" fill="#fe201e" d="M 470.5,-0.5 C 472.167,-0.5 473.833,-0.5 475.5,-0.5C 588.695,39.195 663.528,116.195 700,230.5C 702.461,240.471 704.794,250.471 707,260.5C 709.301,241.839 710.301,223.172 710,204.5C 711.938,203.14 713.604,203.473 715,205.5C 733.488,290.6 722.155,371.6 681,448.5C 677.447,453.771 674.281,459.271 671.5,465C 674.366,467.27 677.032,469.77 679.5,472.5C 677.902,474.698 676.569,477.031 675.5,479.5C 673.952,479.821 673.285,480.821 673.5,482.5C 609.43,592.42 513.43,651.92 385.5,661C 392.657,662.664 399.657,664.83 406.5,667.5C 407.167,667.167 407.833,666.833 408.5,666.5C 413.267,668.573 418.1,669.573 423,669.5C 427.806,670.518 432.472,671.851 437,673.5C 437.49,674.793 437.657,676.127 437.5,677.5C 419.5,677.5 401.5,677.5 383.5,677.5C 308.697,668.422 243.03,639.255 186.5,590C 183.665,588.56 183.165,586.727 185,584.5C 250.982,619.636 320.815,630.802 394.5,618C 404.705,615.449 414.705,612.283 424.5,608.5C 426.171,610.51 426.838,612.843 426.5,615.5C 424.801,615.34 423.134,615.506 421.5,616C 410.554,623.307 398.887,629.307 386.5,634C 471.764,630.776 543.931,598.61 603,537.5C 624.862,513.819 643.362,487.819 658.5,459.5C 660.583,460.959 662.75,462.292 665,463.5C 681.037,419.82 686.371,374.82 681,328.5C 676.335,292.177 665.835,257.677 649.5,225C 652.636,223.959 655.136,224.793 657,227.5C 665.391,238.892 673.391,250.559 681,262.5C 673.15,217.935 656.15,177.269 630,140.5C 590.281,87.2198 539.114,49.3865 476.5,27C 471.904,25.7139 467.237,24.8806 462.5,24.5C 463.591,15.5626 466.258,7.22922 470.5,-0.5 Z"/></g>
<g><path style="opacity:0.874" fill="#fe201e" d="M 286.5,6.5 C 290.846,6.33432 295.179,6.50098 299.5,7C 300.458,8.14748 300.125,9.14748 298.5,10C 217.172,41.6601 159.006,97.4934 124,177.5C 122.315,175.983 120.815,174.316 119.5,172.5C 123.515,158.098 127.349,143.764 131,129.5C 86.1654,186.061 63.6654,250.728 63.5,323.5C 64.0043,367.35 72.671,409.516 89.5,450C 89.3552,450.772 89.0219,451.439 88.5,452C 81.5269,454.602 74.5269,457.102 67.5,459.5C 35.2323,386.298 29.399,310.964 50,233.5C 62.7719,189.451 83.2719,149.617 111.5,114C 109.402,114.032 107.402,114.699 105.5,116C 92.7388,124.926 80.4054,134.426 68.5,144.5C 67.3279,144.081 66.3279,143.415 65.5,142.5C 121.282,68.4268 194.949,23.0934 286.5,6.5 Z"/></g>
<g><path style="opacity:0.027" fill="#ff3a39" d="M 675.5,479.5 C 675.068,480.71 674.401,481.71 673.5,482.5C 673.285,480.821 673.952,479.821 675.5,479.5 Z"/></g>
</svg>
